+8_ID_stride3.mot
nRows=6
nColumns=38

name +8_ID_stride3.mot
datacolumns 38
datarows 6
range 0.9400000000 0.9650000000
endheader
time	pelvis_tilt_moment	pelvis_list_moment	pelvis_rotation_moment	pelvis_tx_force	pelvis_ty_force	pelvis_tz_force	hip_flexion_r_moment	hip_adduction_r_moment	hip_rotation_r_moment	knee_angle_r_moment	ankle_angle_r_moment	subtalar_angle_r_moment	mtp_angle_r_moment	hip_flexion_l_moment	hip_adduction_l_moment	hip_rotation_l_moment	knee_angle_l_moment	ankle_angle_l_moment	subtalar_angle_l_moment	mtp_angle_l_moment	lumbar_extension_moment	lumbar_bending_moment	lumbar_rotation_moment	arm_flex_r_moment	arm_add_r_moment	arm_rot_r_moment	elbow_flex_r_moment	pro_sup_r_moment	wrist_flex_r_moment	wrist_dev_r_moment	arm_flex_l_moment	arm_add_l_moment	arm_rot_l_moment	elbow_flex_l_moment	pro_sup_l_moment	wrist_flex_l_moment	wrist_dev_l_moment
        0.9400000000	      -23.3873053796	       35.2692117649	        2.7972942447	       23.3787251745	      285.1710695497	      154.3569805301	       80.4506893971	      -16.7705602534	        3.8452960738	       24.8903361624	        4.0835586262	       -0.8423320724	        0.1637279986	      -83.9063070510	       -3.2752548320	       -3.2188757694	      -43.0613918549	        8.6610848019	       -4.4895422245	        0.0990859671	       52.9130638063	       37.1453523041	      -19.8932901790	       -4.3636353657	       -1.3725304265	       -1.4281641026	        1.1921504813	       -0.0802417160	       -0.1342560681	       -0.1627242904	        0.1343109164	        2.8449600214	        2.4665885141	        1.8746797355	        0.0521016633	        0.3117454836	       -0.1125684897	
        0.9450000000	      -37.9312171255	       65.8083407366	       14.1209974985	        9.0966085746	      376.9872997692	      171.6495569685	       75.7320426740	      -16.6526990076	        4.2425642054	       24.7988650802	        4.3605276907	       -0.8551474385	        0.1950821896	      -61.2124608194	      -23.0508570174	       -3.0681256491	      -20.9432274595	       15.0836087828	       -5.9004275130	        0.1918337899	       67.6777164868	       38.9182755752	      -13.6936704009	       -5.0019401810	       -0.5207753127	       -0.5509590630	        1.7512270553	       -0.0648601896	       -0.0304586890	       -0.1802232291	       -1.9436160872	        2.2950808247	        2.0539411310	        2.3261559094	        0.0273993377	        0.2740977192	       -0.1540338553	
        0.9500000000	      -50.6909163037	       79.2349875712	       26.9799231901	       -7.1080148460	      415.3897687262	      165.5960243567	       73.6819024536	      -14.8464529201	        4.3530419124	       24.6726504933	        4.6168663666	       -0.8572421509	        0.2229069483	      -56.2409641712	      -43.4427210602	       -4.0790750806	       -5.9372640316	       17.5004795848	       -5.5871561627	        0.2783318471	       78.1803575263	       40.2803632005	       -7.2442136048	       -5.1885773180	        0.1971936665	        0.2185643587	        2.3978726145	       -0.0532909838	        0.0659083584	       -0.2081949044	       -3.5646613733	        1.8967402816	        1.6501169115	        2.8399181136	        0.0008534400	        0.2358116276	       -0.2023448438	
        0.9550000000	      -57.2216004497	       83.0970922716	       38.9051067141	      -29.3895115711	      359.0222341183	      113.0190525061	       75.1332364315	      -11.3929230069	        3.9249306599	       25.0593613843	        4.8254941197	       -0.8269969724	        0.2444618273	      -60.3830203029	      -61.9949277318	       -7.3453388304	        8.4723737837	       12.2593855730	       -4.0732798842	        0.3469477187	       78.3853280798	       39.1471468810	       -0.9597292588	       -4.6675338228	        0.8082218718	        0.8531647764	        2.9348511637	       -0.0428533295	        0.1460997390	       -0.2292874290	       -4.4936037310	        1.5134271149	        1.1860628649	        3.2468378319	       -0.0248893447	        0.1876747964	       -0.2430288649	
        0.9600000000	      -54.1909649558	       71.1191950940	       47.9801912471	      -58.2383108079	      227.8216982170	       46.1972234452	       78.0602234855	       -6.3331070370	        2.9764931812	       25.9794316772	        4.9032560277	       -0.7587513012	        0.2556159980	      -76.6198118471	      -72.2466892535	      -12.2971833377	       17.1568813846	       -0.3927759594	       -1.7867386373	        0.3783311622	       71.5019824116	       35.2094019507	        4.8127290672	       -3.6845039024	        1.3909418903	        1.3858079900	        3.1030942155	       -0.0299307643	        0.2074524200	       -0.2251237825	       -4.5356158717	        0.9914553153	        0.6233329459	        3.2615430249	       -0.0473764179	        0.1253907404	       -0.2554391093	
        0.9650000000	      -44.3275292787	       39.5460616900	       54.4295790222	      -89.7705807591	       40.6263603792	       -5.1527536340	       80.8539280032	       -0.0801791571	        1.5333844954	       27.3290943003	        4.9225571102	       -0.6520144750	        0.2594811577	     -106.2160786671	      -75.8045745932	      -18.7788960464	       22.5125714893	      -19.2420075728	       -0.5033152270	        0.3880457395	       55.2632501733	       28.2935566113	        9.8745221432	       -2.4482174079	        1.9629496595	        1.8503402291	        3.1404824103	       -0.0148294038	        0.2551448911	       -0.2086067071	       -4.5012317920	        0.3375682879	        0.0025446691	        3.2177777908	       -0.0663317146	        0.0544289008	       -0.2580675589	
